/* XPM */
static char *_0492_73b986304172ab2995d3a9fcab673cebfb4af391db463df740c820a0a85e323d[] = {
/* columns rows colors chars-per-pixel */
"24 30 34 1 ",
"  c #5F7A78",
". c #5E7A79",
"X c #5F7A79",
"o c #5F7B79",
"O c #90625C",
"+ c #90625D",
"@ c #91625D",
"# c #90635D",
"$ c #AA7859",
"% c #AA7959",
"& c #AB7959",
"* c #6E967C",
"= c #6F967C",
"- c #6E977C",
"; c #6E967D",
": c #B68962",
"> c #B78962",
", c #B68963",
"< c #C49A6C",
"1 c #C59A6C",
"2 c #C49A6D",
"3 c #97BA8E",
"4 c #96BB8E",
"5 c #97BB8E",
"6 c #97BB8F",
"7 c #AED498",
"8 c #AED499",
"9 c #AFD499",
"0 c #AED599",
"q c #C2E09A",
"w c #C3E09A",
"e c #C2E19A",
"r c #C2E09B",
"t c None",
/* pixels */
"ttttttttXXXXXX .Xttttttt",
"tttttt.o588788855Xtttttt",
"ttttX 4088qrq8rq85XXtttt",
"ttt.588088qqq8qq8953Xttt",
"tt 68qqe8qqw878808985.tt",
"to550rqqrqq890qqq78855Xt",
"to88878qq88888rqqrqq54Xt",
"X5880888888890798qqq885X",
"X5888890898898788890785X",
".5558885598798753698555X",
"X555878569078885568855Xt",
"X555555555568858885355Xt",
"to555888645555555545553X",
"tX555545633453555555555X",
"X*55555564355355354555* ",
"X*-*5;*55=**55555;*-**-X",
"X**=5;*55**;53555*=***-X",
"X**=***-;55553***555**ot",
"tX**555-*=-***;***=-**Xt",
"tX*=***-;*****;**;=-**Xt",
"ttX*-*****-**-***;**;.tt",
"tttXX*=*;*-;=**=-*XXXttt",
"tttttX.XXXoXXoXXXXtttttt",
"tttttttt+%$%%%%@tttttttt",
"tttttttt+:%%&%:@tttttttt",
"tttttttt+>::::,+tttttttt",
"ttttttttO:<,<<<+tttttttt",
"ttttttt+2<<<<<<1#ttttttt",
"tttttttt<1<21<<<tttttttt",
"ttttttttttt<<ttttttttttt"
};
